<svg xmlns="http://www.w3.org/2000/svg" width="120" height="36" viewBox="0 0 120 36">
  <defs>
    <linearGradient id="g" x1="0" x2="1">
      <stop offset="0" stop-color="#22C55E"/>
      <stop offset="1" stop-color="#4ADE80"/>
    </linearGradient>
  </defs>
  <g fill="none" fill-rule="evenodd">
    <g transform="translate(2 4)">
      <path d="M0 6c6-5 18-6 28 0 10-6 22-5 28 0v16c-6-5-18-6-28 0-10-6-22-5-28 0V6z" fill="#E9F9EE"/>
      <path d="M2 6v12c6-5 18-6 28 0 10-6 22-5 28 0V6c-6-5-18-6-28 0C20 1 8 1 2 6z" stroke="#16A34A" stroke-width="2" fill="url(#g)" opacity="0.95"/>
      <path d="M86 2l10-8v8l10 12" transform="translate(0 2)" stroke="#16A34A" stroke-width="3" stroke-linecap="round" stroke-linejoin="round"/>
    </g>
    <text x="70" y="26" font-family="Inter, sans-serif" font-weight="700" font-size="18" fill="#16A34A">ATLAS</text>
  </g>
</svg>