<svg xmlns="http://www.w3.org/2000/svg" viewBox="0 0 240 300" width="240" height="300">
  <defs>
    <linearGradient id="g2" x1="0" x2="1">
      <stop offset="0" stop-color="#22C55E" />
      <stop offset="1" stop-color="#10B981" />
    </linearGradient>
  </defs>
  <rect width="100%" height="100%" fill="none"/>
  <g transform="translate(40,20)">
    <ellipse cx="80" cy="40" rx="60" ry="40" fill="#fff" stroke="#0f172a" opacity="0.06" />
    <rect x="20" y="40" width="120" height="110" rx="28" fill="#fff" stroke="#e6eef0" />
    <circle cx="80" cy="55" r="32" fill="#06121a" />
    <g fill="#2ee07a">
      <circle cx="70" cy="50" r="6" />
      <path d="M92 48c0 7-8 12-14 12s-14-5-14-12" fill="#34D399" opacity="0.9" />
    </g>
    <path d="M40 130c16 12 48 12 80 0" stroke="#22C55E" stroke-width="6" stroke-linecap="round" fill="none" />
    <path d="M62 18c6-12 20-20 34 0" stroke="#16A34A" stroke-width="6" stroke-linecap="round" fill="#16A34A" transform="translate(0,6)"/>
    <g transform="translate(10,160)">
      <rect x="0" y="0" width="140" height="20" rx="10" fill="#F3F4F6" />
    </g>
  </g>
</svg>